<svg width="30" height="15" viewBox="0 0 30 15" fill="none" xmlns="http://www.w3.org/2000/svg">
<path fill-rule="evenodd" clip-rule="evenodd" d="M6.4835 0.000953151C6.13758 -0.0113902 5.83452 0.0961502 5.57423 0.323655C3.80843 2.44808 2.04254 4.57259 0.276735 6.69702C0.137104 6.88911 0.0449123 7.10427 1.90735e-06 7.34242C0.0449123 7.58057 0.137104 7.79574 0.276735 7.98782C2.10991 10.2074 3.96798 12.3991 5.85097 14.5629C6.55206 14.7834 6.9738 14.528 7.11604 13.7965C7.10086 13.6289 7.06133 13.4675 6.99744 13.3124C5.61701 11.6079 4.207 9.92718 2.76735 8.27019C9.17179 8.24332 15.5762 8.21638 21.9807 8.18951C22.5836 7.9754 22.7813 7.55855 22.5737 6.93904C22.4566 6.68387 22.259 6.53599 21.9807 6.49533C15.5762 6.46846 9.17179 6.44152 2.76735 6.41465C4.207 4.75766 5.61701 3.07695 6.99744 1.37244C7.23535 0.741231 7.06401 0.284043 6.4835 0.000953151Z" fill="#2C2C69"/>
<path fill-rule="evenodd" clip-rule="evenodd" d="M29.3339 6.45499C28.4489 6.51082 28.1458 6.96801 28.4246 7.82647C28.96 8.37297 29.4607 8.34602 29.9269 7.7458C30.1227 7.10507 29.9251 6.67483 29.3339 6.45499Z" fill="#2C2C69"/>
<path fill-rule="evenodd" clip-rule="evenodd" d="M25.6968 6.45499C24.8562 6.47597 24.5267 6.90629 24.7085 7.7458C25.1816 8.34812 25.6824 8.37499 26.2107 7.82647C26.4769 7.18785 26.3056 6.73066 25.6968 6.45499Z" fill="#2C2C69"/>
</svg>
